<svg width="404" height="69" viewBox="0 0 404 69" fill="none" xmlns="http://www.w3.org/2000/svg">
<path d="M152.232 48.5484C152.272 48.8019 152.622 49.0421 152.959 49.1622C153.08 49.2022 153.148 49.2823 153.013 49.5492C152.043 51.5241 151.154 52.6583 149.942 54.3663C148.824 55.9543 147.571 57.1819 146.035 58.3695C143.732 60.171 140.539 62.1459 137.899 60.8248C136.727 60.251 136.215 58.6898 136.242 57.4355C136.296 53.886 137.966 50.2564 141.024 46.6802C144.769 42.3167 148.904 40.0482 151.626 41.2892C154.428 42.5569 153.538 45.6394 152.286 48.068C152.191 48.2548 152.191 48.4149 152.232 48.575M182.379 20.9663C182.581 20.6327 182.379 20.3792 181.921 20.3792C179.577 20.3792 176.493 20.3792 174.054 20.3792C173.475 20.3792 173.165 20.4459 172.896 20.9529C171.993 22.5943 161.001 38.2201 158.954 41.2625C158.603 41.7296 158.186 41.6628 158.132 41.1291C157.93 39.3276 156.286 37.2593 153.7 36.2585C151.733 35.4979 149.807 35.3645 147.8 35.618C144.19 36.0717 140.957 37.8865 138.128 39.9281C133.858 43.0106 130.18 47.0004 125.425 49.9495C122.825 51.5508 119.269 52.9519 116.898 50.8569C114.743 48.962 114.985 44.7587 118.285 41.5161C118.636 41.1691 119.053 41.4627 118.986 41.7696C118.676 43.2374 119.053 44.7053 120.239 45.7328C121.68 46.9471 123.728 47.0939 125.492 46.2799C127.567 45.3058 128.793 43.4243 129.143 41.2759C129.695 37.9532 127.001 35.0309 123.633 34.7907C120.899 34.6039 118.272 35.5113 115.713 37.5129C114.433 38.527 113.705 39.2609 112.587 40.7688C112.318 41.1424 111.9 41.1691 111.914 40.6354C112.049 36.392 110.19 34.0034 106.485 33.9233C103.616 33.8566 100.545 35.3378 98.1467 37.1526C95.5199 39.1542 93.2299 41.7963 90.7647 44.2916C90.4549 44.5985 90.1855 44.5852 90.1047 43.9847C90.0373 41.1691 89.283 38.4469 87.9089 36.5121C87.424 35.8315 86.4002 35.4979 85.5381 35.965C85.134 36.1651 83.7599 36.7789 82.7496 37.5395C82.2512 37.9265 82.0626 38.5003 82.2782 39.2209C83.6118 43.4243 83.3154 48.2148 81.5103 52.2446C79.8534 55.9409 76.6474 59.2769 72.8756 60.4112C70.3835 61.1584 67.8106 60.7982 66.2076 58.7031C64.0118 55.8208 64.9009 50.8035 68.1743 46.6402C71.0705 42.9706 75.2464 40.6487 79.4089 39.1408C79.8938 38.9674 80.0016 38.6604 79.8669 38.2735C79.6379 37.6196 79.2742 36.7389 79.126 36.3386C78.7488 35.3778 77.6712 35.2177 76.3645 35.3511C73.3336 35.6847 70.599 36.6722 67.9049 38.0466C60.8327 41.6362 57.2899 48.575 55.7408 52.298C54.9864 54.0861 54.3533 55.1937 53.5316 56.1811C52.4135 57.5155 51.026 58.7165 48.4666 60.8515C48.2376 61.0517 48.0625 61.452 48.251 61.839C48.507 62.3461 49.8406 64.1342 50.2178 64.2943C50.6354 64.4944 51.1203 64.2142 51.3089 64.0808C53.1005 62.9332 55.2424 61.1051 56.2931 59.8641C56.6568 59.4371 57.034 59.6239 57.236 60.2644C58.2059 63.5737 60.7788 66.2692 64.3082 67.4034C70.7876 69.4718 77.5095 66.4827 82.588 61.2519C85.8075 57.9292 86.9795 55.7941 88.2053 54.353C90.2933 51.8977 94.4288 46.3866 99.3591 42.8505C101.164 41.5427 103.306 40.5553 104.37 41.2091C105.232 41.7429 105.515 42.9706 104.128 45.3591C99.1166 54.0461 91.7346 64.2543 90.3741 66.7362C90.1316 67.1632 90.3471 67.4968 90.8186 67.4968C93.4454 67.4968 96.0453 67.4968 98.4296 67.4968C98.8337 67.4835 99.0088 67.31 99.1974 67.0432C103.05 61.3319 106.674 55.8876 110.553 50.2564C110.769 49.9228 110.971 50.1763 110.984 50.3231C111.065 51.6308 111.402 53.4189 112.224 54.5798C113.692 56.7416 115.766 57.6757 118.083 57.689C119.915 57.7023 120.845 57.4488 122.825 56.7416C124.442 56.1811 125.735 55.4339 126.718 54.7533C127.297 54.3663 127.392 55.0069 127.378 55.1136C126.489 59.6506 127.594 65.0282 132.349 67.2567C138.034 69.9121 144.298 66.1758 147.894 62.7998C148.244 62.4795 148.622 62.5062 148.662 63.2134C148.743 64.5078 149.349 66.029 150.481 67.0965C153.498 69.9655 159.573 68.8312 165.689 64.3477C169.609 61.4787 173.704 57.4221 177.422 53.1387C177.557 52.9786 177.665 52.7117 177.395 52.4315C176.829 51.871 176.021 51.2305 175.455 50.7368C175.199 50.5366 174.822 50.59 174.607 50.7368C170.808 54.1662 167.386 58.0626 162.456 61.2919C160.786 62.3994 158.132 63.2801 156.947 61.7589C156.475 61.1718 156.529 60.3445 156.987 59.2636C158.428 55.8609 181.234 22.9279 182.42 20.993" fill="white"/>
<path d="M76.7956 20.6593C77.523 20.0455 78.5199 19.9121 79.1261 20.4058C79.8131 20.9529 79.4898 22.3273 78.8028 23.2881C78.0484 24.3423 76.7821 25.2497 75.6237 25.4632C75.3947 25.5032 75.1926 25.4098 75.0848 24.9161C74.8962 23.6217 75.3408 21.887 76.7956 20.6593ZM133.939 4.20618C121.034 7.02177 108.721 6.98174 95.8837 5.51389C79.1261 3.57901 63.1363 -0.677726 46.2574 0.643331C32.2344 1.76423 18.8983 9.23687 18.8714 20.606C18.8579 26.3706 23.1686 31.0276 29.8635 30.8275C37.7304 30.5739 44.1829 24.5958 47.5641 17.0698C48.8438 14.2142 46.473 13.0266 45.3414 14.6679C43.3208 17.6303 40.4785 19.9254 37.4071 21.3666C33.7027 23.088 29.7558 22.6209 28.5569 19.7653C26.873 15.7488 30.3754 9.7306 38.377 6.90167C49.9215 2.84509 62.0182 5.52724 73.6435 7.59556C73.8051 7.59556 74.4248 7.91582 73.8859 8.19604C71.798 9.27691 69.7504 10.1443 66.5578 12.7463C64.2678 14.6012 61.2773 17.0832 58.9469 19.7786C56.6434 22.4341 55.0134 24.8093 52.8581 27.4381C52.5617 27.8117 52.1846 27.7984 52.198 27.7984C46.9444 28.6391 41.7851 29.1995 37.0704 32.3087C36.1005 32.9492 35.6694 34.0834 36.2621 34.9508C36.801 35.7247 38.0133 35.8048 38.8485 35.2177C41.7851 33.136 44.8026 32.1619 48.2511 32.0685C48.3993 32.0685 48.4801 32.1085 48.5205 32.1886C48.5475 32.2419 48.5205 32.3487 48.4666 32.4154C43.2804 39.2342 41.9872 40.7688 38.0941 44.9988C36.1005 47.1739 34.1337 49.002 31.9515 50.9102C23.1012 58.7031 13.5774 58.5697 10.1693 53.6858C8.1352 50.7501 8.40462 47.6676 9.73822 45.1189C11.3817 41.9831 14.7089 39.7012 17.4839 38.3535C18.5077 37.8598 18.804 36.6054 17.7803 35.4712C17.1202 34.7239 15.5441 34.6038 14.3587 34.804C10.7351 35.4445 6.45136 38.0332 3.91886 41.1691C1.03612 44.7052 -0.391784 48.962 0.093163 53.7391C0.955291 62.3727 8.44503 67.35 16.9451 67.2967C23.7074 67.2433 30.0925 65.3084 37.7574 57.9158C44.9103 51.0303 51.4167 40.7421 57.519 31.2011C57.7076 30.8942 57.8423 30.7341 58.7718 30.6273C62.5974 30.1736 68.2417 29.6532 71.8653 29.453C72.6736 29.413 72.8352 29.4264 73.1585 29.8C74.1015 30.9342 75.5159 31.8817 76.6474 32.4688C77.1997 32.749 77.4692 32.8958 77.9002 32.9091C78.439 32.9091 78.8566 32.6423 79.1261 32.362C79.5032 31.9617 79.611 31.4413 79.4089 31.1077C79.1934 30.7608 76.6609 29.4264 76.5936 28.8926C76.5397 28.559 76.9303 28.4789 76.9303 28.4789C78.7893 27.9318 80.7156 26.7976 81.8876 24.6625C83.0326 22.5675 83.2212 19.7786 81.1197 18.2174C79.2742 16.8563 76.4858 17.0698 74.2631 18.9647C72.0809 20.8061 71.3669 23.4749 71.6633 25.8235C71.7171 26.2238 71.6902 26.3706 71.111 26.4106C67.7702 26.6641 64.5372 26.7576 60.954 26.931C60.7115 26.9444 60.6442 26.7976 60.7789 26.6375C64.9144 19.832 71.0705 14.9881 77.8867 10.2243C78.3447 9.90407 78.1966 9.29025 78.1831 8.78318C90.4954 11.3185 102.39 16.0423 115.174 15.9356C120.454 15.8955 125.519 15.1349 130.342 12.6129C134.599 10.4111 136.323 8.38286 136.444 6.26116C136.538 4.80666 135.474 3.87258 133.952 4.19284" fill="white"/>
<path d="M204 0H201V67H204V0Z" fill="white"/>
<path d="M381.517 67.6437H385.478L389.654 54.0862L393.829 67.6437H397.817L404 47.3341H399.608L395.81 60.2912L391.822 47.3341H387.754L383.794 60.2912L379.995 47.3341H375.294L381.504 67.6437H381.517ZM364.531 63.9207C359.856 63.9207 358.294 61.4387 358.294 57.5023C358.294 53.5658 359.856 51.1105 364.531 51.1105C369.205 51.1105 370.768 53.5658 370.768 57.5023C370.768 61.4387 369.205 63.9207 364.531 63.9207ZM364.531 67.8439C371.01 67.8439 375.334 65.0149 375.334 57.4222C375.334 49.8295 371.023 47.0272 364.531 47.0272C358.038 47.0272 353.754 49.8562 353.754 57.4222C353.754 64.9883 358.038 67.8439 364.531 67.8439ZM338.599 56.9819V51.1639H343.853C346.412 51.1639 347.45 51.7643 347.45 54.0995C347.45 56.4347 346.345 56.9819 343.907 56.9819H338.599ZM346.924 67.5103H351.733L347.692 60.3312C351.073 59.2637 351.976 56.715 351.976 53.9394C351.976 50.0697 350.44 47.3475 344.042 47.3475H334.208V67.5103H338.599V60.8116H343.166L346.924 67.5103ZM318.434 56.9819V51.1639H323.687C326.247 51.1639 327.284 51.7643 327.284 54.0995C327.284 56.4347 326.179 56.9819 323.741 56.9819H318.434ZM326.759 67.5103H331.568L327.526 60.3312C330.908 59.2637 331.81 56.715 331.81 53.9394C331.81 50.0697 330.274 47.3475 323.862 47.3475H314.029V67.5103H318.42V60.8116H322.987L326.745 67.5103H326.759ZM301.151 63.9207C296.476 63.9207 294.914 61.4387 294.914 57.5023C294.914 53.5658 296.476 51.1105 301.151 51.1105C305.825 51.1105 307.388 53.5658 307.388 57.5023C307.388 61.4387 305.825 63.9207 301.151 63.9207ZM301.151 67.8439C307.63 67.8439 311.954 65.0149 311.954 57.4222C311.954 49.8295 307.644 47.0272 301.151 47.0272C294.658 47.0272 290.374 49.8562 290.374 57.4222C290.374 64.9883 294.658 67.8439 301.151 67.8439ZM265.426 67.5103H269.494V54.1129L274.937 67.5103H278.345L283.814 54.0328V67.5103H288.205V47.3475H282.346L276.823 61.1185L271.3 47.3475H265.426V67.5103ZM252.211 63.9207C247.537 63.9207 245.975 61.4387 245.975 57.5023C245.975 53.5658 247.537 51.1105 252.211 51.1105C256.886 51.1105 258.448 53.5658 258.448 57.5023C258.448 61.4387 256.886 63.9207 252.211 63.9207ZM252.211 67.8439C258.691 67.8439 263.015 65.0149 263.015 57.4222C263.015 49.8295 258.704 47.0272 252.211 47.0272C245.719 47.0272 241.435 49.8562 241.435 57.4222C241.435 64.9883 245.719 67.8439 252.211 67.8439ZM228.826 67.5103H233.366V51.364H240.398V47.3341H221.768V51.364H228.826V67.5103Z" fill="white"/>
<path d="M343.503 40.7421H347.814V27.1312L357.903 40.7421H362.025V20.5793H357.742V33.2961L348.366 20.5793H343.503V40.7421ZM330.234 37.1525C325.56 37.1525 323.997 34.6706 323.997 30.7341C323.997 26.7976 325.56 24.3423 330.234 24.3423C334.909 24.3423 336.471 26.7976 336.471 30.7341C336.471 34.6706 334.909 37.1525 330.234 37.1525ZM330.234 41.0757C336.714 41.0757 341.038 38.2468 341.038 30.654C341.038 23.0613 336.727 20.259 330.234 20.259C323.741 20.259 319.458 23.088 319.458 30.654C319.458 38.2201 323.741 41.0757 330.234 41.0757ZM301.191 41.049C308.668 41.049 310.971 38.0599 310.971 32.3087V29.0127H300.828V32.709H306.512V33.1493C306.512 35.9783 305.354 37.286 301.407 37.286C296.49 37.286 295.278 35.1109 295.278 30.694C295.278 26.2772 297.002 24.329 301.461 24.329C304.263 24.329 305.61 25.1963 306.647 26.1838L309.732 23.1147C308.115 21.46 305.61 20.259 301.488 20.259C294.618 20.259 290.765 23.3682 290.765 30.654C290.765 37.3527 293.042 41.049 301.178 41.049M269.966 40.7554H274.277V27.1445L284.367 40.7554H288.489V20.5793H284.205V33.2961L274.829 20.5793H269.966V40.7421V40.7554ZM262.706 40.7554H267.191V20.5793H262.706V40.7421V40.7554ZM247.012 30.227V24.409H252.266C254.825 24.409 255.862 25.0095 255.862 27.3447C255.862 29.6799 254.758 30.227 252.32 30.227H247.012ZM255.337 40.7554H260.146L256.105 33.563C259.486 32.4955 260.389 29.9468 260.389 27.1712C260.389 23.3015 258.853 20.5793 252.441 20.5793H242.607V40.7421H246.999V34.0434H251.565L255.324 40.7421L255.337 40.7554ZM227.17 28.6391V24.369H232.356C234.632 24.369 235.346 25.0228 235.346 26.4373C235.346 27.8518 234.74 28.6391 232.356 28.6391H227.17ZM227.17 37.0458V32.4955H232.666C234.996 32.4955 235.912 33.096 235.912 34.7506C235.912 36.4053 234.983 37.0325 232.666 37.0325H227.17V37.0458ZM222.751 40.7421H232.154C237.623 40.7421 240.479 39.5678 240.479 35.191C240.479 32.3354 239.603 30.8141 237.205 30.2404C239.078 29.5865 239.926 28.1187 239.926 25.7835C239.926 22.0872 237.623 20.5793 232.208 20.5793H222.751V40.7421Z" fill="white"/>
</svg>
